<svg width="1724" height="312" viewBox="0 0 1724 312" fill="none" xmlns="http://www.w3.org/2000/svg">
<path d="M278.129 275V191H293.489V263H330.689V275H278.129ZM344.223 275V191H399.063V203.36H359.583V226.4H395.463V238.4H359.583V262.64H399.063V275H344.223ZM433.158 275V203.36H408.678V191H473.118V203.36H448.518V275H433.158ZM481.256 220.52L487.856 191H504.056L491.816 220.52H481.256ZM544.817 276.44C538.657 276.44 533.217 275.4 528.497 273.32C523.777 271.16 520.057 268.12 517.337 264.2C514.617 260.2 513.217 255.36 513.137 249.68H529.337C529.497 253.6 530.897 256.92 533.537 259.64C536.257 262.28 539.977 263.6 544.697 263.6C548.777 263.6 552.017 262.64 554.417 260.72C556.817 258.72 558.017 256.08 558.017 252.8C558.017 249.36 556.937 246.68 554.777 244.76C552.697 242.84 549.897 241.28 546.377 240.08C542.857 238.88 539.097 237.6 535.097 236.24C528.617 234 523.657 231.12 520.217 227.6C516.857 224.08 515.177 219.4 515.177 213.56C515.097 208.6 516.257 204.36 518.657 200.84C521.137 197.24 524.497 194.48 528.737 192.56C532.977 190.56 537.857 189.56 543.377 189.56C548.977 189.56 553.897 190.56 558.137 192.56C562.457 194.56 565.817 197.36 568.217 200.96C570.697 204.56 572.017 208.84 572.177 213.8H555.737C555.657 210.84 554.497 208.24 552.257 206C550.097 203.68 547.057 202.52 543.137 202.52C539.777 202.44 536.937 203.28 534.617 205.04C532.377 206.72 531.257 209.2 531.257 212.48C531.257 215.28 532.137 217.52 533.897 219.2C535.657 220.8 538.057 222.16 541.097 223.28C544.137 224.4 547.617 225.6 551.537 226.88C555.697 228.32 559.497 230 562.937 231.92C566.377 233.84 569.137 236.4 571.217 239.6C573.297 242.72 574.337 246.76 574.337 251.72C574.337 256.12 573.217 260.2 570.977 263.96C568.737 267.72 565.417 270.76 561.017 273.08C556.617 275.32 551.217 276.44 544.817 276.44ZM653.052 276.44C645.132 276.44 638.212 274.64 632.292 271.04C626.372 267.44 621.772 262.44 618.492 256.04C615.212 249.56 613.572 242.04 613.572 233.48C613.572 224.84 615.252 217.24 618.612 210.68C622.052 204.04 626.892 198.88 633.132 195.2C639.452 191.44 646.932 189.56 655.572 189.56C665.412 189.56 673.572 191.92 680.052 196.64C686.532 201.36 690.732 207.88 692.652 216.2H675.492C674.212 212.28 671.892 209.24 668.532 207.08C665.172 204.84 660.852 203.72 655.572 203.72C647.172 203.72 640.692 206.4 636.132 211.76C631.572 217.04 629.292 224.32 629.292 233.6C629.292 242.88 631.532 250.08 636.012 255.2C640.572 260.24 646.732 262.76 654.492 262.76C662.092 262.76 667.812 260.72 671.652 256.64C675.572 252.48 677.932 247.04 678.732 240.32H657.492V228.8H694.212V275H680.052L678.852 263.96C676.132 267.96 672.732 271.04 668.652 273.2C664.572 275.36 659.372 276.44 653.052 276.44ZM709.144 275V191H763.984V203.36H724.504V226.4H760.384V238.4H724.504V262.64H763.984V275H709.144ZM798.079 275V203.36H773.599V191H838.039V203.36H813.439V275H798.079ZM897.572 275V203.36H873.092V191H937.532V203.36H912.932V275H897.572ZM985.223 276.44C976.823 276.44 969.463 274.6 963.143 270.92C956.903 267.24 951.983 262.16 948.383 255.68C944.863 249.12 943.103 241.56 943.103 233C943.103 224.44 944.863 216.92 948.383 210.44C951.983 203.88 956.903 198.76 963.143 195.08C969.463 191.4 976.823 189.56 985.223 189.56C993.543 189.56 1000.86 191.4 1007.18 195.08C1013.5 198.76 1018.42 203.88 1021.94 210.44C1025.46 216.92 1027.22 224.44 1027.22 233C1027.22 241.56 1025.46 249.12 1021.94 255.68C1018.42 262.16 1013.5 267.24 1007.18 270.92C1000.86 274.6 993.543 276.44 985.223 276.44ZM985.223 262.64C993.223 262.64 999.583 260 1004.3 254.72C1009.1 249.44 1011.5 242.2 1011.5 233C1011.5 223.8 1009.1 216.56 1004.3 211.28C999.583 206 993.223 203.36 985.223 203.36C977.223 203.36 970.823 206 966.023 211.28C961.223 216.56 958.823 223.8 958.823 233C958.823 242.2 961.223 249.44 966.023 254.72C970.823 260 977.223 262.64 985.223 262.64ZM1086.42 275L1064.22 191H1080.66L1095.78 257.84L1113.54 191H1130.46L1147.74 257.84L1162.86 191H1179.42L1156.62 275H1138.38L1121.7 212.72L1104.54 275H1086.42ZM1226.28 276.44C1217.88 276.44 1210.52 274.6 1204.2 270.92C1197.96 267.24 1193.04 262.16 1189.44 255.68C1185.92 249.12 1184.16 241.56 1184.16 233C1184.16 224.44 1185.92 216.92 1189.44 210.44C1193.04 203.88 1197.96 198.76 1204.2 195.08C1210.52 191.4 1217.88 189.56 1226.28 189.56C1234.6 189.56 1241.92 191.4 1248.24 195.08C1254.56 198.76 1259.48 203.88 1263 210.44C1266.52 216.92 1268.28 224.44 1268.28 233C1268.28 241.56 1266.52 249.12 1263 255.68C1259.48 262.16 1254.56 267.24 1248.24 270.92C1241.92 274.6 1234.6 276.44 1226.28 276.44ZM1226.28 262.64C1234.28 262.64 1240.64 260 1245.36 254.72C1250.16 249.44 1252.56 242.2 1252.56 233C1252.56 223.8 1250.16 216.56 1245.36 211.28C1240.64 206 1234.28 203.36 1226.28 203.36C1218.28 203.36 1211.88 206 1207.08 211.28C1202.28 216.56 1199.88 223.8 1199.88 233C1199.88 242.2 1202.28 249.44 1207.08 254.72C1211.88 260 1218.28 262.64 1226.28 262.64ZM1281.84 275V191H1312.68C1319.4 191 1324.92 192.16 1329.24 194.48C1333.64 196.72 1336.92 199.8 1339.08 203.72C1341.24 207.56 1342.32 211.84 1342.32 216.56C1342.32 221.68 1340.96 226.36 1338.24 230.6C1335.6 234.84 1331.44 237.92 1325.76 239.84L1343.16 275H1325.52L1309.92 241.88H1297.2V275H1281.84ZM1297.2 230.6H1311.72C1316.84 230.6 1320.6 229.36 1323 226.88C1325.4 224.4 1326.6 221.12 1326.6 217.04C1326.6 213.04 1325.4 209.84 1323 207.44C1320.68 205.04 1316.88 203.84 1311.6 203.84H1297.2V230.6ZM1356.61 275V191H1371.97V224.96L1403.05 191H1422.01L1391.05 224.36L1422.85 275H1404.01L1380.01 236.12L1371.97 244.88V275H1356.61ZM1439.6 275.84C1436.8 275.84 1434.48 274.96 1432.64 273.2C1430.88 271.44 1430 269.32 1430 266.84C1430 264.28 1430.88 262.12 1432.64 260.36C1434.48 258.6 1436.8 257.72 1439.6 257.72C1442.4 257.72 1444.68 258.6 1446.44 260.36C1448.28 262.12 1449.2 264.28 1449.2 266.84C1449.2 269.32 1448.28 271.44 1446.44 273.2C1444.68 274.96 1442.4 275.84 1439.6 275.84Z" fill="#F5F5F5"/>
<path d="M102.699 119H101.699V120H102.699V119ZM102.699 35V34H101.699V35H102.699ZM118.059 35H119.059V34H118.059V35ZM118.059 69.92H117.059V70.92H118.059V69.92ZM155.739 69.92V70.92H156.739V69.92H155.739ZM155.739 35V34H154.739V35H155.739ZM171.099 35H172.099V34H171.099V35ZM171.099 119V120H172.099V119H171.099ZM155.739 119H154.739V120H155.739V119ZM155.739 82.4H156.739V81.4H155.739V82.4ZM118.059 82.4V81.4H117.059V82.4H118.059ZM118.059 119V120H119.059V119H118.059ZM103.699 119V35H101.699V119H103.699ZM102.699 36H118.059V34H102.699V36ZM117.059 35V69.92H119.059V35H117.059ZM118.059 70.92H155.739V68.92H118.059V70.92ZM156.739 69.92V35H154.739V69.92H156.739ZM155.739 36H171.099V34H155.739V36ZM170.099 35V119H172.099V35H170.099ZM171.099 118H155.739V120H171.099V118ZM156.739 119V82.4H154.739V119H156.739ZM155.739 81.4H118.059V83.4H155.739V81.4ZM117.059 82.4V119H119.059V82.4H117.059ZM118.059 118H102.699V120H118.059V118ZM182.026 119L181.086 118.657L180.595 120H182.026V119ZM212.746 35V34H212.047L211.806 34.6565L212.746 35ZM230.026 35L230.965 34.6565L230.725 34H230.026V35ZM260.746 119V120H262.176L261.685 118.657L260.746 119ZM244.426 119L243.48 119.327L243.713 120H244.426V119ZM237.706 99.56L238.651 99.2333L238.418 98.56H237.706V99.56ZM204.946 99.56V98.56H204.237L204.002 99.2281L204.946 99.56ZM198.106 119V120H198.814L199.049 119.332L198.106 119ZM209.146 87.56L208.201 87.2321L207.74 88.56H209.146V87.56ZM233.506 87.56V88.56H234.916L234.449 87.2292L233.506 87.56ZM221.266 52.64L222.209 52.3092L221.261 49.6036L220.321 52.3121L221.266 52.64ZM182.965 119.343L213.685 35.3435L211.806 34.6565L181.086 118.657L182.965 119.343ZM212.746 36H230.026V34H212.746V36ZM229.086 35.3435L259.806 119.343L261.685 118.657L230.965 34.6565L229.086 35.3435ZM260.746 118H244.426V120H260.746V118ZM245.371 118.673L238.651 99.2333L236.76 99.8867L243.48 119.327L245.371 118.673ZM237.706 98.56H204.946V100.56H237.706V98.56ZM204.002 99.2281L197.162 118.668L199.049 119.332L205.889 99.8919L204.002 99.2281ZM198.106 118H182.026V120H198.106V118ZM209.146 88.56H233.506V86.56H209.146V88.56ZM234.449 87.2292L222.209 52.3092L220.322 52.9708L232.562 87.8908L234.449 87.2292ZM220.321 52.3121L208.201 87.2321L210.09 87.8879L222.21 52.9679L220.321 52.3121ZM285.262 119L284.323 119.343L284.563 120H285.262V119ZM254.542 35V34H253.112L253.603 35.3435L254.542 35ZM270.982 35L271.927 34.6713L271.693 34H270.982V35ZM294.742 103.28L293.798 103.609L294.74 106.316L295.686 103.61L294.742 103.28ZM318.622 35V34H317.913L317.678 34.6699L318.622 35ZM334.822 35L335.761 35.3435L336.253 34H334.822V35ZM304.102 119V120H304.801L305.041 119.343L304.102 119ZM286.201 118.657L255.481 34.6565L253.603 35.3435L284.323 119.343L286.201 118.657ZM254.542 36H270.982V34H254.542V36ZM270.038 35.3286L293.798 103.609L295.687 102.951L271.927 34.6713L270.038 35.3286ZM295.686 103.61L319.566 35.3301L317.678 34.6699L293.798 102.95L295.686 103.61ZM318.622 36H334.822V34H318.622V36ZM333.883 34.6565L303.163 118.657L305.041 119.343L335.761 35.3435L333.883 34.6565ZM304.102 118H285.262V120H304.102V118ZM344.808 119H343.808V120H344.808V119ZM344.808 35V34H343.808V35H344.808ZM399.648 35H400.648V34H399.648V35ZM399.648 47.36V48.36H400.648V47.36H399.648ZM360.168 47.36V46.36H359.168V47.36H360.168ZM360.168 70.4H359.168V71.4H360.168V70.4ZM396.048 70.4H397.048V69.4H396.048V70.4ZM396.048 82.4V83.4H397.048V82.4H396.048ZM360.168 82.4V81.4H359.168V82.4H360.168ZM360.168 106.64H359.168V107.64H360.168V106.64ZM399.648 106.64H400.648V105.64H399.648V106.64ZM399.648 119V120H400.648V119H399.648ZM345.808 119V35H343.808V119H345.808ZM344.808 36H399.648V34H344.808V36ZM398.648 35V47.36H400.648V35H398.648ZM399.648 46.36H360.168V48.36H399.648V46.36ZM359.168 47.36V70.4H361.168V47.36H359.168ZM360.168 71.4H396.048V69.4H360.168V71.4ZM395.048 70.4V82.4H397.048V70.4H395.048ZM396.048 81.4H360.168V83.4H396.048V81.4ZM359.168 82.4V106.64H361.168V82.4H359.168ZM360.168 107.64H399.648V105.64H360.168V107.64ZM398.648 106.64V119H400.648V106.64H398.648ZM399.648 118H344.808V120H399.648V118ZM437.377 119L436.438 118.657L435.947 120H437.377V119ZM468.097 35V34H467.398L467.158 34.6565L468.097 35ZM485.377 35L486.316 34.6565L486.076 34H485.377V35ZM516.097 119V120H517.528L517.036 118.657L516.097 119ZM499.777 119L498.832 119.327L499.065 120H499.777V119ZM493.057 99.56L494.002 99.2333L493.77 98.56H493.057V99.56ZM460.297 99.56V98.56H459.589L459.354 99.2281L460.297 99.56ZM453.457 119V120H454.165L454.401 119.332L453.457 119ZM464.497 87.56L463.552 87.2321L463.092 88.56H464.497V87.56ZM488.857 87.56V88.56H490.267L489.801 87.2292L488.857 87.56ZM476.617 52.64L477.561 52.3092L476.613 49.6036L475.672 52.3121L476.617 52.64ZM438.316 119.343L469.036 35.3435L467.158 34.6565L436.438 118.657L438.316 119.343ZM468.097 36H485.377V34H468.097V36ZM484.438 35.3435L515.158 119.343L517.036 118.657L486.316 34.6565L484.438 35.3435ZM516.097 118H499.777V120H516.097V118ZM500.722 118.673L494.002 99.2333L492.112 99.8867L498.832 119.327L500.722 118.673ZM493.057 98.56H460.297V100.56H493.057V98.56ZM459.354 99.2281L452.514 118.668L454.401 119.332L461.241 99.8919L459.354 99.2281ZM453.457 118H437.377V120H453.457V118ZM464.497 88.56H488.857V86.56H464.497V88.56ZM489.801 87.2292L477.561 52.3092L475.673 52.9708L487.913 87.8908L489.801 87.2292ZM475.672 52.3121L463.552 87.2321L465.442 87.8879L477.562 52.9679L475.672 52.3121ZM555.512 119H554.512V120H555.512V119ZM555.512 35V34H554.512V35H555.512ZM603.272 38.36L603.725 37.4688L603.272 38.36ZM613.232 73.64L614.111 74.1163L614.115 74.1087L613.232 73.64ZM603.512 83L603.978 83.8847L603.99 83.8779L603.512 83ZM570.872 86.48V85.48H569.872V86.48H570.872ZM570.872 119V120H571.872V119H570.872ZM570.872 74H569.872V75H570.872V74ZM597.152 70.52L597.859 71.2271L597.152 70.52ZM597.152 51.08L596.433 51.775L596.444 51.7872L596.457 51.799L597.152 51.08ZM570.872 47.48V46.48H569.872V47.48H570.872ZM556.512 119V35H554.512V119H556.512ZM555.512 36H586.592V34H555.512V36ZM586.592 36C593.208 36 598.6 37.1038 602.818 39.2512L603.725 37.4688C599.143 35.1362 593.415 34 586.592 34V36ZM602.818 39.2512C607.059 41.4101 610.182 44.3559 612.236 48.0826L613.987 47.1174C611.721 43.0041 608.284 39.7899 603.725 37.4688L602.818 39.2512ZM612.236 48.0826C614.307 51.8417 615.352 56.0731 615.352 60.8H617.352C617.352 55.7669 616.236 51.1983 613.987 47.1174L612.236 48.0826ZM615.352 60.8C615.352 65.2843 614.348 69.4023 612.348 73.1713L614.115 74.1087C616.275 70.0377 617.352 65.5957 617.352 60.8H615.352ZM612.352 73.1637C610.377 76.81 607.289 79.8005 603.033 82.1221L603.99 83.8779C608.534 81.3995 611.926 78.15 614.111 74.1163L612.352 73.1637ZM603.045 82.1154C598.833 84.3362 593.368 85.48 586.592 85.48V87.48C593.575 87.48 599.39 86.3038 603.978 83.8846L603.045 82.1154ZM586.592 85.48H570.872V87.48H586.592V85.48ZM569.872 86.48V119H571.872V86.48H569.872ZM570.872 118H555.512V120H570.872V118ZM570.872 75H585.632V73H570.872V75ZM585.632 75C591.096 75 595.262 73.8237 597.859 71.2271L596.444 69.8129C594.401 71.8563 590.887 73 585.632 73V75ZM597.859 71.2271C600.483 68.6026 601.752 65.0879 601.752 60.8H599.752C599.752 64.6721 598.62 67.6374 596.444 69.8129L597.859 71.2271ZM601.752 60.8C601.752 56.4399 600.487 52.9136 597.847 50.361L596.457 51.799C598.616 53.8864 599.752 56.8401 599.752 60.8H601.752ZM597.871 50.385C595.275 47.6997 591.104 46.48 585.632 46.48V48.48C590.879 48.48 594.388 49.6603 596.433 51.775L597.871 50.385ZM585.632 46.48H570.872V48.48H585.632V46.48ZM569.872 47.48V74H571.872V47.48H569.872ZM628.402 119H627.402V120H628.402V119ZM628.402 35V34H627.402V35H628.402ZM675.802 38.48L675.329 39.361L675.339 39.3662L675.349 39.3712L675.802 38.48ZM685.642 47.72L684.766 48.2026L684.771 48.2103L685.642 47.72ZM684.802 74.6L683.96 74.06L683.953 74.0714L684.802 74.6ZM672.322 83.84L672.002 82.8927L670.919 83.2588L671.426 84.2835L672.322 83.84ZM689.722 119V120H691.333L690.618 118.556L689.722 119ZM672.082 119L671.177 119.426L671.448 120H672.082V119ZM656.482 85.88L657.387 85.4539L657.117 84.88H656.482V85.88ZM643.762 85.88V84.88H642.762V85.88H643.762ZM643.762 119V120H644.762V119H643.762ZM643.762 74.6H642.762V75.6H643.762V74.6ZM669.562 70.88L668.844 70.1846L669.562 70.88ZM669.562 51.44L668.843 52.135L668.849 52.1411L668.855 52.1471L669.562 51.44ZM643.762 47.84V46.84H642.762V47.84H643.762ZM629.402 119V35H627.402V119H629.402ZM628.402 36H659.242V34H628.402V36ZM659.242 36C665.855 36 671.198 37.1427 675.329 39.361L676.275 37.599C671.766 35.1773 666.069 34 659.242 34V36ZM675.349 39.3712C679.589 41.5301 682.713 44.4759 684.766 48.2026L686.518 47.2374C684.251 43.1241 680.815 39.9099 676.256 37.5888L675.349 39.3712ZM684.771 48.2103C686.84 51.8899 687.882 55.9991 687.882 60.56H689.882C689.882 55.6809 688.764 51.2301 686.514 47.2297L684.771 48.2103ZM687.882 60.56C687.882 65.4919 686.575 69.9839 683.961 74.06L685.644 75.14C688.469 70.7361 689.882 65.8681 689.882 60.56H687.882ZM683.953 74.0714C681.459 78.0774 677.508 81.0314 672.002 82.8927L672.642 84.7873C678.496 82.8086 682.865 79.6026 685.651 75.1286L683.953 74.0714ZM671.426 84.2835L688.826 119.444L690.618 118.556L673.218 83.3965L671.426 84.2835ZM689.722 118H672.082V120H689.722V118ZM672.987 118.574L657.387 85.4539L655.578 86.3061L671.177 119.426L672.987 118.574ZM656.482 84.88H643.762V86.88H656.482V84.88ZM642.762 85.88V119H644.762V85.88H642.762ZM643.762 118H628.402V120H643.762V118ZM643.762 75.6H658.282V73.6H643.762V75.6ZM658.282 75.6C663.542 75.6 667.618 74.3274 670.281 71.5754L668.844 70.1846C666.707 72.3926 663.262 73.6 658.282 73.6V75.6ZM670.281 71.5754C672.894 68.8755 674.162 65.3289 674.162 61.04H672.162C672.162 64.9111 671.031 67.9245 668.844 70.1846L670.281 71.5754ZM674.162 61.04C674.162 56.8257 672.89 53.3536 670.269 50.7329L668.855 52.1471C671.034 54.3264 672.162 57.2542 672.162 61.04H674.162ZM670.281 50.745C667.688 48.0621 663.56 46.84 658.162 46.84V48.84C663.324 48.84 666.797 50.0179 668.843 52.135L670.281 50.745ZM658.162 46.84H643.762V48.84H658.162V46.84ZM642.762 47.84V74.6H644.762V47.84H642.762ZM720.448 114.92L719.94 115.781L719.945 115.784L720.448 114.92ZM705.688 99.68L704.807 100.153L704.81 100.159L704.814 100.166L705.688 99.68ZM705.688 54.44L704.811 53.9589L704.809 53.9627L705.688 54.44ZM720.448 39.08L719.945 38.2158L719.94 38.2186L720.448 39.08ZM764.488 39.08L764.991 38.2158L764.488 39.08ZM779.248 54.44L778.367 54.9128L778.369 54.9173L779.248 54.44ZM779.248 99.68L780.127 100.157L780.129 100.153L779.248 99.68ZM764.488 114.92L764.991 115.784L764.488 114.92ZM761.608 98.72L760.868 98.0473L760.862 98.0535L761.608 98.72ZM761.608 55.28L760.862 55.9465L760.868 55.9527L761.608 55.28ZM723.328 55.28L724.068 55.9527L723.328 55.28ZM723.328 98.72L724.068 98.0473L723.328 98.72ZM742.528 119.44C734.278 119.44 727.097 117.634 720.951 114.056L719.945 115.784C726.439 119.566 733.978 121.44 742.528 121.44V119.44ZM720.956 114.059C714.873 110.471 710.078 105.523 706.562 99.1944L704.814 100.166C708.498 106.797 713.543 112.009 719.94 115.781L720.956 114.059ZM706.569 99.2072C703.138 92.813 701.408 85.4199 701.408 77H699.408C699.408 85.7001 701.198 93.4269 704.807 100.153L706.569 99.2072ZM701.408 77C701.408 68.5798 703.138 61.2288 706.567 54.9173L704.809 53.9627C701.198 60.6112 699.408 68.3002 699.408 77H701.408ZM706.564 54.9211C710.081 48.5132 714.876 43.527 720.956 39.9414L719.94 38.2186C713.54 41.993 708.495 47.2467 704.811 53.9589L706.564 54.9211ZM720.951 39.9442C727.097 36.3657 734.278 34.56 742.528 34.56V32.56C733.978 32.56 726.439 34.4343 719.945 38.2158L720.951 39.9442ZM742.528 34.56C750.696 34.56 757.837 36.3648 763.985 39.9442L764.991 38.2158C758.498 34.4352 751 32.56 742.528 32.56V34.56ZM763.985 39.9442C770.142 43.5294 774.932 48.5126 778.367 54.9128L780.129 53.9672C776.523 47.2474 771.474 41.9906 764.991 38.2158L763.985 39.9442ZM778.369 54.9173C781.798 61.2288 783.528 68.5798 783.528 77H785.528C785.528 68.3002 783.738 60.6112 780.127 53.9627L778.369 54.9173ZM783.528 77C783.528 85.4199 781.798 92.813 778.367 99.2072L780.129 100.153C783.738 93.427 785.528 85.7001 785.528 77H783.528ZM778.369 99.2027C774.936 105.523 770.145 110.469 763.985 114.056L764.991 115.784C771.471 112.011 776.52 106.797 780.127 100.157L778.369 99.2027ZM763.985 114.056C757.837 117.635 750.696 119.44 742.528 119.44V121.44C751 121.44 758.498 119.565 764.991 115.784L763.985 114.056ZM742.528 107.64C750.771 107.64 757.418 104.907 762.353 99.3865L760.862 98.0535C756.358 103.093 750.284 105.64 742.528 105.64V107.64ZM762.348 99.3927C767.359 93.8802 769.808 86.3746 769.808 77H767.808C767.808 86.0254 765.457 92.9998 760.868 98.0473L762.348 99.3927ZM769.808 77C769.808 67.6254 767.359 60.1198 762.348 54.6073L760.868 55.9527C765.457 61.0002 767.808 67.9746 767.808 77H769.808ZM762.353 54.6135C757.418 49.0926 750.771 46.36 742.528 46.36V48.36C750.284 48.36 756.358 50.9074 760.862 55.9465L762.353 54.6135ZM742.528 46.36C734.284 46.36 727.601 49.0924 722.588 54.6073L724.068 55.9527C728.654 50.9076 734.772 48.36 742.528 48.36V46.36ZM722.588 54.6073C717.577 60.1198 715.128 67.6254 715.128 77H717.128C717.128 67.9746 719.479 61.0002 724.068 55.9527L722.588 54.6073ZM715.128 77C715.128 86.3746 717.577 93.8802 722.588 99.3927L724.068 98.0473C719.479 92.9998 717.128 86.0254 717.128 77H715.128ZM722.588 99.3927C727.601 104.908 734.284 107.64 742.528 107.64V105.64C734.772 105.64 728.654 103.092 724.068 98.0473L722.588 99.3927ZM800.37 113.6L799.681 114.325L799.687 114.33L799.693 114.336L800.37 113.6ZM793.05 93.92V92.92H792.05V93.92H793.05ZM808.41 93.92L809.409 93.8996L809.389 92.92H808.41V93.92ZM811.17 103.28L810.373 103.884L811.17 103.28ZM827.73 103.52L828.519 104.134L828.524 104.127L828.53 104.12L827.73 103.52ZM830.25 35V34H829.25V35H830.25ZM845.61 35H846.61V34H845.61V35ZM838.65 113.84L839.344 114.56L839.344 114.559L838.65 113.84ZM820.05 119.44C812.085 119.44 805.785 117.22 801.047 112.864L799.693 114.336C804.875 119.1 811.695 121.44 820.05 121.44V119.44ZM801.059 112.875C796.426 108.47 794.05 102.201 794.05 93.92H792.05C792.05 102.599 794.553 109.45 799.681 114.325L801.059 112.875ZM793.05 94.92H808.41V92.92H793.05V94.92ZM807.41 93.9404C807.493 97.9995 808.448 101.346 810.373 103.884L811.966 102.676C810.372 100.574 809.487 97.6805 809.409 93.8996L807.41 93.9404ZM810.373 103.884C812.383 106.534 815.574 107.76 819.69 107.76V105.76C815.966 105.76 813.476 104.666 811.966 102.676L810.373 103.884ZM819.69 107.76C823.564 107.76 826.589 106.615 828.519 104.134L826.94 102.906C825.51 104.745 823.175 105.76 819.69 105.76V107.76ZM828.53 104.12C830.372 101.663 831.25 98.5142 831.25 94.76H829.25C829.25 98.2058 828.447 100.897 826.93 102.92L828.53 104.12ZM831.25 94.76V35H829.25V94.76H831.25ZM830.25 36H845.61V34H830.25V36ZM844.61 35V94.76H846.61V35H844.61ZM844.61 94.76C844.61 102.808 842.349 108.878 837.955 113.121L839.344 114.559C844.23 109.842 846.61 103.192 846.61 94.76H844.61ZM837.955 113.12C833.624 117.3 827.695 119.44 820.05 119.44V121.44C828.084 121.44 834.556 119.18 839.344 114.56L837.955 113.12ZM861.957 119H860.957V120H861.957V119ZM861.957 35V34H860.957V35H861.957ZM916.797 35H917.797V34H916.797V35ZM916.797 47.36V48.36H917.797V47.36H916.797ZM877.317 47.36V46.36H876.317V47.36H877.317ZM877.317 70.4H876.317V71.4H877.317V70.4ZM913.197 70.4H914.197V69.4H913.197V70.4ZM913.197 82.4V83.4H914.197V82.4H913.197ZM877.317 82.4V81.4H876.317V82.4H877.317ZM877.317 106.64H876.317V107.64H877.317V106.64ZM916.797 106.64H917.797V105.64H916.797V106.64ZM916.797 119V120H917.797V119H916.797ZM862.957 119V35H860.957V119H862.957ZM861.957 36H916.797V34H861.957V36ZM915.797 35V47.36H917.797V35H915.797ZM916.797 46.36H877.317V48.36H916.797V46.36ZM876.317 47.36V70.4H878.317V47.36H876.317ZM877.317 71.4H913.197V69.4H877.317V71.4ZM912.197 70.4V82.4H914.197V70.4H912.197ZM913.197 81.4H877.317V83.4H913.197V81.4ZM876.317 82.4V106.64H878.317V82.4H876.317ZM877.317 107.64H916.797V105.64H877.317V107.64ZM915.797 106.64V119H917.797V106.64H915.797ZM916.797 118H861.957V120H916.797V118ZM947.532 115.04L947.014 115.896L947.022 115.9L947.532 115.04ZM933.492 99.8L932.597 100.247L932.6 100.252L933.492 99.8ZM933.492 54.44L932.597 53.9928V53.9928L933.492 54.44ZM994.092 41.12L993.473 41.9057L993.484 41.9141L994.092 41.12ZM1006.21 62.12V63.12H1007.4L1007.2 61.9457L1006.21 62.12ZM989.292 62.12L988.317 62.3424L988.494 63.12H989.292V62.12ZM982.572 51.44L981.954 52.2263L981.964 52.2344L981.975 52.2422L982.572 51.44ZM950.892 55.4L950.124 54.7598L950.892 55.4ZM950.892 98.84L950.124 99.4802L950.128 99.4859L950.892 98.84ZM982.572 103.04L983.153 103.854L983.157 103.851L982.572 103.04ZM989.292 92.84V91.84H988.504L988.32 92.6059L989.292 92.84ZM1006.21 92.84L1007.2 93.0221L1007.41 91.84H1006.21V92.84ZM994.092 113.12L993.49 112.321L993.486 112.325L994.092 113.12ZM969.372 119.44C961.035 119.44 953.939 117.671 948.041 114.18L947.022 115.9C953.285 119.609 960.749 121.44 969.372 121.44V119.44ZM948.05 114.185C942.133 110.604 937.581 105.665 934.384 99.3484L932.6 100.252C935.962 106.895 940.77 112.116 947.014 115.896L948.05 114.185ZM934.386 99.3528C931.186 92.9531 929.572 85.5507 929.572 77.12H927.572C927.572 85.8093 929.237 93.5269 932.597 100.247L934.386 99.3528ZM929.572 77.12C929.572 68.6893 931.186 61.2869 934.386 54.8872L932.597 53.9928C929.237 60.7131 927.572 68.4306 927.572 77.12H929.572ZM934.386 54.8872C937.585 48.4904 942.137 43.5145 948.05 39.9355L947.014 38.2245C940.767 42.0055 935.959 47.2695 932.597 53.9928L934.386 54.8872ZM948.05 39.9355C953.946 36.3669 961.039 34.56 969.372 34.56V32.56C960.745 32.56 953.278 34.4331 947.014 38.2245L948.05 39.9355ZM969.372 34.56C979.282 34.56 987.288 37.0349 993.473 41.9056L994.711 40.3344C988.096 35.1251 979.622 32.56 969.372 32.56V34.56ZM993.484 41.9141C999.74 46.7026 1003.66 53.4676 1005.23 62.2943L1007.2 61.9457C1005.56 52.6924 1001.4 45.4574 994.7 40.3259L993.484 41.9141ZM1006.21 61.12H989.292V63.12H1006.21V61.12ZM990.267 61.8976C989.179 57.1282 986.818 53.3532 983.169 50.6378L981.975 52.2422C985.206 54.6468 987.325 57.9918 988.317 62.3424L990.267 61.8976ZM983.19 50.6537C979.605 47.8375 974.886 46.48 969.132 46.48V48.48C974.578 48.48 978.818 49.7625 981.954 52.2263L983.19 50.6537ZM969.132 46.48C961.118 46.48 954.74 49.2207 950.124 54.7598L951.66 56.0402C955.844 51.0193 961.626 48.48 969.132 48.48V46.48ZM950.124 54.7598C945.53 60.2724 943.292 67.7657 943.292 77.12H945.292C945.292 68.0743 947.454 61.0876 951.66 56.0402L950.124 54.7598ZM943.292 77.12C943.292 86.4743 945.53 93.9676 950.124 99.4802L951.66 98.1998C947.454 93.1524 945.292 86.1657 945.292 77.12H943.292ZM950.128 99.4859C954.746 104.943 961.124 107.64 969.132 107.64V105.64C961.62 105.64 955.838 103.137 951.655 98.1941L950.128 99.4859ZM969.132 107.64C974.867 107.64 979.573 106.411 983.153 103.854L981.991 102.226C978.851 104.469 974.596 105.64 969.132 105.64V107.64ZM983.157 103.851C986.801 101.224 989.171 97.6145 990.264 93.0741L988.32 92.6059C987.333 96.7055 985.223 99.8958 981.987 102.229L983.157 103.851ZM989.292 93.84H1006.21V91.84H989.292V93.84ZM1005.23 92.6579C1003.67 101.074 999.753 107.605 993.49 112.321L994.693 113.919C1001.39 108.875 1005.55 101.886 1007.2 93.0221L1005.23 92.6579ZM993.486 112.325C987.3 117.041 979.289 119.44 969.372 119.44V121.44C979.615 121.44 988.084 118.959 994.698 113.915L993.486 112.325ZM1038.31 119H1037.31V120H1038.31V119ZM1038.31 47.36H1039.31V46.36H1038.31V47.36ZM1013.83 47.36H1012.83V48.36H1013.83V47.36ZM1013.83 35V34H1012.83V35H1013.83ZM1078.27 35H1079.27V34H1078.27V35ZM1078.27 47.36V48.36H1079.27V47.36H1078.27ZM1053.67 47.36V46.36H1052.67V47.36H1053.67ZM1053.67 119V120H1054.67V119H1053.67ZM1039.31 119V47.36H1037.31V119H1039.31ZM1038.31 46.36H1013.83V48.36H1038.31V46.36ZM1014.83 47.36V35H1012.83V47.36H1014.83ZM1013.83 36H1078.27V34H1013.83V36ZM1077.27 35V47.36H1079.27V35H1077.27ZM1078.27 46.36H1053.67V48.36H1078.27V46.36ZM1052.67 47.36V119H1054.67V47.36H1052.67ZM1053.67 118H1038.31V120H1053.67V118ZM1118.25 119H1117.25V120H1118.25V119ZM1118.25 35V34H1117.25V35H1118.25ZM1133.61 35H1134.61V34H1133.61V35ZM1133.61 119V120H1134.61V119H1133.61ZM1119.25 119V35H1117.25V119H1119.25ZM1118.25 36H1133.61V34H1118.25V36ZM1132.61 35V119H1134.61V35H1132.61ZM1133.61 118H1118.25V120H1133.61V118ZM1149.89 119H1148.89V120H1149.89V119ZM1149.89 35V34H1148.89V35H1149.89ZM1165.25 35L1166.08 34.4449L1165.78 34H1165.25V35ZM1204.73 94.16L1203.89 94.7151L1205.73 97.46V94.16H1204.73ZM1204.73 35V34H1203.73V35H1204.73ZM1220.09 35H1221.09V34H1220.09V35ZM1220.09 119V120H1221.09V119H1220.09ZM1204.73 119L1203.9 119.556L1204.19 120H1204.73V119ZM1165.25 59.96L1166.08 59.4041L1164.25 56.6656V59.96H1165.25ZM1165.25 119V120H1166.25V119H1165.25ZM1150.89 119V35H1148.89V119H1150.89ZM1149.89 36H1165.25V34H1149.89V36ZM1164.41 35.5551L1203.89 94.7151L1205.56 93.6049L1166.08 34.4449L1164.41 35.5551ZM1205.73 94.16V35H1203.73V94.16H1205.73ZM1204.73 36H1220.09V34H1204.73V36ZM1219.09 35V119H1221.09V35H1219.09ZM1220.09 118H1204.73V120H1220.09V118ZM1205.56 118.444L1166.08 59.4041L1164.42 60.5159L1203.9 119.556L1205.56 118.444ZM1164.25 59.96V119H1166.25V59.96H1164.25ZM1165.25 118H1149.89V120H1165.25V118ZM1264.96 119H1263.96V120H1264.96V119ZM1264.96 35V34H1263.96V35H1264.96ZM1283.2 35L1284.1 34.5512L1283.82 34H1283.2V35ZM1309.96 88.28L1309.07 88.7288L1309.97 90.5201L1310.86 88.724L1309.96 88.28ZM1336.36 35V34H1335.74L1335.47 34.556L1336.36 35ZM1354.6 35H1355.6V34H1354.6V35ZM1354.6 119V120H1355.6V119H1354.6ZM1339.24 119H1338.24V120H1339.24V119ZM1339.24 61.04H1340.24L1338.35 60.5863L1339.24 61.04ZM1315.84 107V108H1316.46L1316.74 107.454L1315.84 107ZM1303.72 107L1302.83 107.454L1303.11 108H1303.72V107ZM1280.32 61.04L1281.22 60.5863L1279.32 61.04H1280.32ZM1280.32 119V120H1281.32V119H1280.32ZM1265.96 119V35H1263.96V119H1265.96ZM1264.96 36H1283.2V34H1264.96V36ZM1282.31 35.4488L1309.07 88.7288L1310.86 87.8312L1284.1 34.5512L1282.31 35.4488ZM1310.86 88.724L1337.26 35.444L1335.47 34.556L1309.07 87.836L1310.86 88.724ZM1336.36 36H1354.6V34H1336.36V36ZM1353.6 35V119H1355.6V35H1353.6ZM1354.6 118H1339.24V120H1354.6V118ZM1340.24 119V61.04H1338.24V119H1340.24ZM1338.35 60.5863L1314.95 106.546L1316.74 107.454L1340.14 61.4937L1338.35 60.5863ZM1315.84 106H1303.72V108H1315.84V106ZM1304.62 106.546L1281.22 60.5863L1279.43 61.4937L1302.83 107.454L1304.62 106.546ZM1279.32 61.04V119H1281.32V61.04H1279.32ZM1280.32 118H1264.96V120H1280.32V118ZM1370.9 119H1369.9V120H1370.9V119ZM1370.9 35V34H1369.9V35H1370.9ZM1386.26 35H1387.26V34H1386.26V35ZM1386.26 119V120H1387.26V119H1386.26ZM1371.9 119V35H1369.9V119H1371.9ZM1370.9 36H1386.26V34H1370.9V36ZM1385.26 35V119H1387.26V35H1385.26ZM1386.26 118H1370.9V120H1386.26V118ZM1402.54 119H1401.54V120H1402.54V119ZM1402.54 35V34H1401.54V35H1402.54ZM1417.9 35L1418.73 34.4449L1418.44 34H1417.9V35ZM1457.38 94.16L1456.55 94.7151L1458.38 97.46V94.16H1457.38ZM1457.38 35V34H1456.38V35H1457.38ZM1472.74 35H1473.74V34H1472.74V35ZM1472.74 119V120H1473.74V119H1472.74ZM1457.38 119L1456.55 119.556L1456.85 120H1457.38V119ZM1417.9 59.96L1418.73 59.4041L1416.9 56.6656V59.96H1417.9ZM1417.9 119V120H1418.9V119H1417.9ZM1403.54 119V35H1401.54V119H1403.54ZM1402.54 36H1417.9V34H1402.54V36ZM1417.07 35.5551L1456.55 94.7151L1458.21 93.6049L1418.73 34.4449L1417.07 35.5551ZM1458.38 94.16V35H1456.38V94.16H1458.38ZM1457.38 36H1472.74V34H1457.38V36ZM1471.74 35V119H1473.74V35H1471.74ZM1472.74 118H1457.38V120H1472.74V118ZM1458.21 118.444L1418.73 59.4041L1417.07 60.5159L1456.55 119.556L1458.21 118.444ZM1416.9 59.96V119H1418.9V59.96H1416.9ZM1417.9 118H1402.54V120H1417.9V118ZM1489.03 119H1488.03V120H1489.03V119ZM1489.03 35V34H1488.03V35H1489.03ZM1541.95 40.28L1541.46 41.1536L1541.47 41.1573L1541.47 41.1608L1541.95 40.28ZM1556.11 54.92L1555.21 55.3535L1555.21 55.3604L1555.21 55.3672L1556.11 54.92ZM1556.11 99.2L1555.21 98.7573L1555.21 98.762L1556.11 99.2ZM1541.95 113.84L1542.43 114.718L1542.43 114.716L1541.95 113.84ZM1504.39 105.8H1503.39V106.8H1504.39V105.8ZM1533.67 102.44L1534.15 103.317L1534.16 103.313L1534.16 103.309L1533.67 102.44ZM1542.43 92.6L1543.35 92.9834L1543.35 92.9773L1542.43 92.6ZM1542.43 61.52L1541.5 61.8973L1542.43 61.52ZM1504.39 48.08V47.08H1503.39V48.08H1504.39ZM1490.03 119V35H1488.03V119H1490.03ZM1489.03 36H1517.71V34H1489.03V36ZM1517.71 36C1527.44 36 1535.33 37.741 1541.46 41.1536L1542.43 39.4064C1535.92 35.779 1527.66 34 1517.71 34V36ZM1541.47 41.1608C1547.69 44.5045 1552.26 49.2313 1555.21 55.3535L1557.01 54.4865C1553.87 47.9687 1549 42.9354 1542.42 39.3992L1541.47 41.1608ZM1555.21 55.3672C1558.25 61.4416 1559.79 68.6423 1559.79 77H1561.79C1561.79 68.3977 1560.2 60.8784 1557 54.4728L1555.21 55.3672ZM1559.79 77C1559.79 85.3573 1558.25 92.6002 1555.21 98.7573L1557 99.6427C1560.2 93.1598 1561.79 85.6027 1561.79 77H1559.79ZM1555.21 98.762C1552.26 104.806 1547.69 109.538 1541.47 112.964L1542.43 114.716C1549 111.102 1553.87 106.074 1557.01 99.638L1555.21 98.762ZM1541.47 112.962C1535.34 116.298 1527.44 118 1517.71 118V120C1527.66 120 1535.91 118.262 1542.43 114.718L1541.47 112.962ZM1517.71 118H1489.03V120H1517.71V118ZM1504.39 106.8H1516.99V104.8H1504.39V106.8ZM1516.99 106.8C1524.12 106.8 1529.86 105.669 1534.15 103.317L1533.19 101.563C1529.31 103.691 1523.94 104.8 1516.99 104.8V106.8ZM1534.16 103.309C1538.43 100.882 1541.5 97.4334 1543.35 92.9834L1541.5 92.2166C1539.83 96.2466 1537.06 99.3578 1533.17 101.571L1534.16 103.309ZM1543.35 92.9773C1545.17 88.5072 1546.07 83.172 1546.07 77H1544.07C1544.07 82.988 1543.2 88.0528 1541.5 92.2227L1543.35 92.9773ZM1546.07 77C1546.07 70.906 1545.17 65.6114 1543.35 61.1427L1541.5 61.8973C1543.2 66.0686 1544.07 71.094 1544.07 77H1546.07ZM1543.35 61.1427C1541.51 56.6135 1538.44 53.1209 1534.16 50.6907L1533.17 52.4293C1537.06 54.6391 1539.83 57.7865 1541.5 61.8973L1543.35 61.1427ZM1534.16 50.6907C1529.87 48.2526 1524.12 47.08 1516.99 47.08V49.08C1523.93 49.08 1529.3 50.2274 1533.17 52.4293L1534.16 50.6907ZM1516.99 47.08H1504.39V49.08H1516.99V47.08ZM1503.39 48.08V105.8H1505.39V48.08H1503.39ZM1582.62 92.84L1581.62 92.8642L1581.64 93.84H1582.62V92.84ZM1582.14 73.04V72.04H1581.12L1581.14 73.0642L1582.14 73.04ZM1598.82 71.96L1599.03 72.9378L1598.82 71.96ZM1606.38 49.64L1605.69 50.3594L1605.69 50.3657L1605.7 50.3719L1606.38 49.64ZM1587.78 49.64L1588.47 50.3598L1588.48 50.3535L1588.49 50.3471L1587.78 49.64ZM1584.42 58.52V59.52H1585.42V58.52H1584.42ZM1569.9 58.52L1568.9 58.5367L1568.92 59.52H1569.9V58.52ZM1573.02 45.68L1573.89 46.1781L1573.02 45.68ZM1582.38 36.8L1581.92 35.9125L1581.91 35.9162L1582.38 36.8ZM1611.42 36.56L1610.98 37.4579L1610.99 37.4612L1611.42 36.56ZM1621.14 45.2L1620.29 45.7251L1620.3 45.7358L1620.3 45.7463L1621.14 45.2ZM1621.02 72.44L1620.2 71.8727L1620.19 71.879L1620.19 71.8853L1621.02 72.44ZM1611.06 80.48L1610.68 79.5564L1610.67 79.559L1611.06 80.48ZM1596.54 83.24L1596.53 82.2401L1595.58 82.2539L1595.54 83.2025L1596.54 83.24ZM1596.18 92.84V93.84H1597.14L1597.18 92.8775L1596.18 92.84ZM1582.5 117.2L1581.79 117.907L1581.8 117.915L1581.81 117.923L1582.5 117.2ZM1582.5 104.36L1581.81 103.637L1581.8 103.645L1581.79 103.653L1582.5 104.36ZM1596.3 104.36L1597.01 103.653L1596.3 104.36ZM1596.3 117.2L1597.01 117.907L1596.3 117.2ZM1583.62 92.8158L1583.14 73.0158L1581.14 73.0642L1581.62 92.8642L1583.62 92.8158ZM1582.14 74.04H1587.66V72.04H1582.14V74.04ZM1587.66 74.04C1591.8 74.04 1595.59 73.675 1599.03 72.9378L1598.61 70.9822C1595.33 71.685 1591.68 72.04 1587.66 72.04V74.04ZM1599.03 72.9378C1602.55 72.1841 1605.42 70.7025 1607.58 68.4531L1606.14 67.0669C1604.3 68.9775 1601.81 70.2959 1598.61 70.9822L1599.03 72.9378ZM1607.58 68.4531C1609.82 66.1249 1610.86 62.7974 1610.86 58.64H1608.86C1608.86 62.4826 1607.9 65.2351 1606.14 67.0669L1607.58 68.4531ZM1610.86 58.64C1610.86 54.5857 1609.63 51.2965 1607.06 48.9081L1605.7 50.3719C1607.77 52.3035 1608.86 55.0143 1608.86 58.64H1610.86ZM1607.07 48.9206C1604.53 46.467 1601.19 45.28 1597.14 45.28V47.28C1600.77 47.28 1603.59 48.333 1605.69 50.3594L1607.07 48.9206ZM1597.14 45.28C1592.95 45.28 1589.55 46.4592 1587.07 48.9329L1588.49 50.3471C1590.49 48.3408 1593.33 47.28 1597.14 47.28V45.28ZM1587.09 48.9202C1584.61 51.307 1583.42 54.5492 1583.42 58.52H1585.42C1585.42 54.9708 1586.47 52.293 1588.47 50.3598L1587.09 48.9202ZM1584.42 57.52H1569.9V59.52H1584.42V57.52ZM1570.9 58.5033C1570.82 53.8639 1571.83 49.7653 1573.89 46.1781L1572.15 45.1819C1569.89 49.1147 1568.82 53.5761 1568.9 58.5367L1570.9 58.5033ZM1573.89 46.1781C1575.95 42.5925 1578.92 39.7614 1582.85 37.6838L1581.91 35.9162C1577.68 38.1585 1574.41 41.2475 1572.15 45.1819L1573.89 46.1781ZM1582.84 37.6875C1586.83 35.6164 1591.62 34.56 1597.26 34.56V32.56C1591.38 32.56 1586.25 33.6635 1581.92 35.9125L1582.84 37.6875ZM1597.26 34.56C1602.49 34.56 1607.06 35.5361 1610.98 37.4579L1611.86 35.6621C1607.62 33.5839 1602.74 32.56 1597.26 32.56V34.56ZM1610.99 37.4612C1614.98 39.3823 1618.07 42.1353 1620.29 45.7251L1621.99 44.6749C1619.57 40.7446 1616.18 37.7377 1611.85 35.6587L1610.99 37.4612ZM1620.3 45.7463C1622.57 49.2312 1623.74 53.551 1623.74 58.76H1625.74C1625.74 53.249 1624.5 48.5288 1621.98 44.6537L1620.3 45.7463ZM1623.74 58.76C1623.74 64.1307 1622.53 68.4786 1620.2 71.8727L1621.84 73.0073C1624.47 69.2013 1625.74 64.4293 1625.74 58.76H1623.74ZM1620.19 71.8853C1617.9 75.3104 1614.75 77.8674 1610.68 79.5564L1611.44 81.4036C1615.85 79.5726 1619.34 76.7696 1621.85 72.9947L1620.19 71.8853ZM1610.67 79.559C1606.65 81.259 1601.94 82.1616 1596.53 82.2401L1596.55 84.2399C1602.18 84.1584 1607.15 83.221 1611.45 81.401L1610.67 79.559ZM1595.54 83.2025L1595.18 92.8025L1597.18 92.8775L1597.54 83.2775L1595.54 83.2025ZM1596.18 91.84H1582.62V93.84H1596.18V91.84ZM1589.46 118.84C1586.89 118.84 1584.83 118.041 1583.19 116.477L1581.81 117.923C1583.85 119.879 1586.43 120.84 1589.46 120.84V118.84ZM1583.21 116.493C1581.63 114.92 1580.86 113.054 1580.86 110.84H1578.86C1578.86 113.586 1579.85 115.96 1581.79 117.907L1583.21 116.493ZM1580.86 110.84C1580.86 108.537 1581.64 106.634 1583.21 105.067L1581.79 103.653C1579.84 105.606 1578.86 108.023 1578.86 110.84H1580.86ZM1583.19 105.083C1584.83 103.519 1586.89 102.72 1589.46 102.72V100.72C1586.43 100.72 1583.85 101.681 1581.81 103.637L1583.19 105.083ZM1589.46 102.72C1592.03 102.72 1594.04 103.519 1595.59 105.067L1597.01 103.653C1595.04 101.681 1592.49 100.72 1589.46 100.72V102.72ZM1595.59 105.067C1597.16 106.634 1597.94 108.537 1597.94 110.84H1599.94C1599.94 108.023 1598.96 105.606 1597.01 103.653L1595.59 105.067ZM1597.94 110.84C1597.94 113.054 1597.17 114.92 1595.59 116.493L1597.01 117.907C1598.95 115.96 1599.94 113.586 1599.94 110.84H1597.94ZM1595.59 116.493C1594.04 118.041 1592.03 118.84 1589.46 118.84V120.84C1592.49 120.84 1595.04 119.879 1597.01 117.907L1595.59 116.493ZM278.129 275H277.129V276H278.129V275ZM278.129 191V190H277.129V191H278.129ZM293.489 191H294.489V190H293.489V191ZM293.489 263H292.489V264H293.489V263ZM330.689 263H331.689V262H330.689V263ZM330.689 275V276H331.689V275H330.689ZM279.129 275V191H277.129V275H279.129ZM278.129 192H293.489V190H278.129V192ZM292.489 191V263H294.489V191H292.489ZM293.489 264H330.689V262H293.489V264ZM329.689 263V275H331.689V263H329.689ZM330.689 274H278.129V276H330.689V274ZM344.223 275H343.223V276H344.223V275ZM344.223 191V190H343.223V191H344.223ZM399.062 191H400.062V190H399.062V191ZM399.062 203.36V204.36H400.062V203.36H399.062ZM359.582 203.36V202.36H358.582V203.36H359.582ZM359.582 226.4H358.582V227.4H359.582V226.4ZM395.462 226.4H396.462V225.4H395.462V226.4ZM395.462 238.4V239.4H396.462V238.4H395.462ZM359.582 238.4V237.4H358.582V238.4H359.582ZM359.582 262.64H358.582V263.64H359.582V262.64ZM399.062 262.64H400.062V261.64H399.062V262.64ZM399.062 275V276H400.062V275H399.062ZM345.223 275V191H343.223V275H345.223ZM344.223 192H399.062V190H344.223V192ZM398.062 191V203.36H400.062V191H398.062ZM399.062 202.36H359.582V204.36H399.062V202.36ZM358.582 203.36V226.4H360.582V203.36H358.582ZM359.582 227.4H395.462V225.4H359.582V227.4ZM394.462 226.4V238.4H396.462V226.4H394.462ZM395.462 237.4H359.582V239.4H395.462V237.4ZM358.582 238.4V262.64H360.582V238.4H358.582ZM359.582 263.64H399.062V261.64H359.582V263.64ZM398.062 262.64V275H400.062V262.64H398.062ZM399.062 274H344.223V276H399.062V274ZM433.158 275H432.158V276H433.158V275ZM433.158 203.36H434.158V202.36H433.158V203.36ZM408.677 203.36H407.677V204.36H408.677V203.36ZM408.677 191V190H407.677V191H408.677ZM473.117 191H474.117V190H473.117V191ZM473.117 203.36V204.36H474.117V203.36H473.117ZM448.518 203.36V202.36H447.518V203.36H448.518ZM448.518 275V276H449.518V275H448.518ZM434.158 275V203.36H432.158V275H434.158ZM433.158 202.36H408.677V204.36H433.158V202.36ZM409.677 203.36V191H407.677V203.36H409.677ZM408.677 192H473.117V190H408.677V192ZM472.117 191V203.36H474.117V191H472.117ZM473.117 202.36H448.518V204.36H473.117V202.36ZM447.518 203.36V275H449.518V203.36H447.518ZM448.518 274H433.158V276H448.518V274ZM481.256 220.52L480.28 220.302L480.008 221.52H481.256V220.52ZM487.856 191V190H487.055L486.88 190.782L487.856 191ZM504.056 191L504.98 191.383L505.553 190H504.056V191ZM491.816 220.52V221.52H492.484L492.74 220.903L491.816 220.52ZM482.232 220.738L488.832 191.218L486.88 190.782L480.28 220.302L482.232 220.738ZM487.856 192H504.056V190H487.856V192ZM503.132 190.617L490.892 220.137L492.74 220.903L504.98 191.383L503.132 190.617ZM491.816 219.52H481.256V221.52H491.816V219.52ZM528.497 273.32L528.08 274.229L528.093 274.235L528.497 273.32ZM517.337 264.2L516.51 264.762L516.515 264.77L517.337 264.2ZM513.137 249.68V248.68H512.122L512.137 249.694L513.137 249.68ZM529.337 249.68L530.336 249.639L530.297 248.68H529.337V249.68ZM533.537 259.64L532.819 260.336L532.829 260.347L532.84 260.358L533.537 259.64ZM554.417 260.72L555.041 261.501L555.049 261.495L555.057 261.488L554.417 260.72ZM554.777 244.76L554.098 245.495L554.105 245.501L554.112 245.507L554.777 244.76ZM546.377 240.08L546.054 241.027L546.377 240.08ZM535.097 236.24L534.77 237.185L534.775 237.187L535.097 236.24ZM520.217 227.6L519.493 228.291L519.501 228.299L520.217 227.6ZM515.177 213.56H516.177V213.552L516.176 213.544L515.177 213.56ZM518.657 200.84L517.833 200.273L517.83 200.277L518.657 200.84ZM528.737 192.56L529.149 193.471L529.156 193.468L529.163 193.464L528.737 192.56ZM558.137 192.56L557.71 193.464L557.716 193.467L558.137 192.56ZM568.217 200.96L567.385 201.515L567.389 201.521L567.393 201.527L568.217 200.96ZM572.177 213.8V214.8H573.209L573.176 213.768L572.177 213.8ZM555.737 213.8L554.737 213.827L554.763 214.8H555.737V213.8ZM552.257 206L551.525 206.681L551.537 206.694L551.549 206.707L552.257 206ZM543.137 202.52L543.113 203.52L543.125 203.52H543.137V202.52ZM534.617 205.04L535.217 205.84L535.221 205.837L534.617 205.04ZM533.897 219.2L533.206 219.923L533.215 219.932L533.224 219.94L533.897 219.2ZM541.097 223.28L541.442 222.342L541.097 223.28ZM551.537 226.88L551.864 225.935L551.855 225.932L551.847 225.929L551.537 226.88ZM562.937 231.92L563.424 231.047L562.937 231.92ZM571.217 239.6L570.378 240.145L570.385 240.155L571.217 239.6ZM570.977 263.96L571.836 264.472L570.977 263.96ZM561.017 273.08L561.47 273.971L561.477 273.968L561.483 273.965L561.017 273.08ZM544.817 275.44C538.769 275.44 533.471 274.419 528.9 272.405L528.093 274.235C532.963 276.381 538.544 277.44 544.817 277.44V275.44ZM528.913 272.411C524.341 270.319 520.767 267.39 518.158 263.63L516.515 264.77C519.346 268.85 523.212 272.001 528.08 274.229L528.913 272.411ZM518.164 263.638C515.572 259.826 514.214 255.185 514.136 249.666L512.137 249.694C512.219 255.535 513.661 260.574 516.51 264.762L518.164 263.638ZM513.137 250.68H529.337V248.68H513.137V250.68ZM528.337 249.721C528.507 253.877 530.001 257.433 532.819 260.336L534.254 258.944C531.792 256.407 530.486 253.323 530.336 249.639L528.337 249.721ZM532.84 260.358C535.79 263.221 539.784 264.6 544.697 264.6V262.6C540.169 262.6 536.723 261.339 534.233 258.922L532.84 260.358ZM544.697 264.6C548.929 264.6 552.413 263.603 555.041 261.501L553.792 259.939C551.62 261.677 548.624 262.6 544.697 262.6V264.6ZM555.057 261.488C557.698 259.288 559.017 256.36 559.017 252.8H557.017C557.017 255.8 555.936 258.152 553.776 259.952L555.057 261.488ZM559.017 252.8C559.017 249.134 557.855 246.159 555.441 244.013L554.112 245.507C556.018 247.201 557.017 249.586 557.017 252.8H559.017ZM555.455 244.025C553.246 241.986 550.312 240.365 546.699 239.133L546.054 241.027C549.481 242.195 552.148 243.694 554.098 245.495L555.455 244.025ZM546.699 239.133C543.179 237.933 539.419 236.653 535.418 235.293L534.775 237.187C538.774 238.547 542.534 239.827 546.054 241.027L546.699 239.133ZM535.423 235.295C529.036 233.087 524.229 230.275 520.932 226.901L519.501 228.299C523.084 231.965 528.197 234.913 534.77 237.185L535.423 235.295ZM520.94 226.91C517.792 223.612 516.177 219.198 516.177 213.56H514.177C514.177 219.602 515.921 224.548 519.493 228.29L520.94 226.91ZM516.176 213.544C516.099 208.755 517.217 204.726 519.483 201.403L517.83 200.277C515.296 203.994 514.094 208.445 514.177 213.576L516.176 213.544ZM519.48 201.407C521.85 197.967 525.064 195.321 529.149 193.471L528.324 191.649C523.93 193.639 520.423 196.513 517.833 200.273L519.48 201.407ZM529.163 193.464C533.248 191.538 537.978 190.56 543.377 190.56V188.56C537.735 188.56 532.705 189.582 528.31 191.656L529.163 193.464ZM543.377 190.56C548.857 190.56 553.627 191.538 557.71 193.464L558.563 191.656C554.166 189.582 549.096 188.56 543.377 188.56V190.56ZM557.716 193.467C561.887 195.398 565.097 198.083 567.385 201.515L569.049 200.405C566.536 196.637 563.027 193.722 558.557 191.653L557.716 193.467ZM567.393 201.527C569.75 204.949 571.022 209.037 571.177 213.832L573.176 213.768C573.011 208.643 571.643 204.171 569.04 200.393L567.393 201.527ZM572.177 212.8H555.737V214.8H572.177V212.8ZM556.736 213.773C556.649 210.538 555.371 207.7 552.964 205.293L551.549 206.707C553.622 208.78 554.664 211.142 554.737 213.827L556.736 213.773ZM552.988 205.319C550.596 202.749 547.264 201.52 543.137 201.52V203.52C546.849 203.52 549.597 204.611 551.525 206.681L552.988 205.319ZM543.16 201.52C539.611 201.436 536.54 202.326 534.012 204.243L535.221 205.837C537.333 204.234 539.943 203.444 543.113 203.52L543.16 201.52ZM534.017 204.24C531.48 206.143 530.257 208.946 530.257 212.48H532.257C532.257 209.454 533.274 207.297 535.217 205.84L534.017 204.24ZM530.257 212.48C530.257 215.508 531.218 218.026 533.206 219.923L534.587 218.477C533.055 217.014 532.257 215.052 532.257 212.48H530.257ZM533.224 219.94C535.107 221.652 537.631 223.069 540.751 224.218L541.442 222.342C538.482 221.251 536.206 219.948 534.569 218.46L533.224 219.94ZM540.751 224.218C543.805 225.344 547.297 226.548 551.226 227.831L551.847 225.929C547.936 224.652 544.468 223.456 541.442 222.342L540.751 224.218ZM551.209 227.825C555.32 229.248 559.066 230.905 562.449 232.793L563.424 231.047C559.927 229.095 556.073 227.392 551.864 225.935L551.209 227.825ZM562.449 232.793C565.752 234.637 568.39 237.086 570.378 240.145L572.055 239.055C569.883 235.714 567.001 233.043 563.424 231.047L562.449 232.793ZM570.385 240.155C572.325 243.065 573.337 246.895 573.337 251.72H575.337C575.337 246.625 574.268 242.375 572.049 239.045L570.385 240.155ZM573.337 251.72C573.337 255.941 572.265 259.844 570.117 263.448L571.836 264.472C574.168 260.556 575.337 256.299 575.337 251.72H573.337ZM570.117 263.448C567.984 267.03 564.81 269.949 560.55 272.195L561.483 273.965C566.023 271.571 569.489 268.41 571.836 264.472L570.117 263.448ZM560.563 272.189C556.339 274.339 551.104 275.44 544.817 275.44V277.44C551.329 277.44 556.894 276.301 561.47 273.971L560.563 272.189ZM632.292 271.04L631.772 271.894L632.292 271.04ZM618.492 256.04L617.6 256.492L617.602 256.496L618.492 256.04ZM618.612 210.68L617.724 210.22L617.722 210.224L618.612 210.68ZM633.132 195.2L633.64 196.061L633.643 196.059L633.132 195.2ZM680.052 196.64L680.641 195.832L680.052 196.64ZM692.652 216.2V217.2H693.909L693.626 215.975L692.652 216.2ZM675.492 216.2L674.541 216.51L674.766 217.2H675.492V216.2ZM668.532 207.08L667.977 207.912L667.984 207.917L667.991 207.921L668.532 207.08ZM636.132 211.76L636.889 212.414L636.894 212.408L636.132 211.76ZM636.012 255.2L635.259 255.859L635.265 255.865L635.27 255.871L636.012 255.2ZM671.652 256.64L670.924 255.954L670.924 255.955L671.652 256.64ZM678.732 240.32L679.725 240.438L679.858 239.32H678.732V240.32ZM657.492 240.32H656.492V241.32H657.492V240.32ZM657.492 228.8V227.8H656.492V228.8H657.492ZM694.212 228.8H695.212V227.8H694.212V228.8ZM694.212 275V276H695.212V275H694.212ZM680.052 275L679.058 275.108L679.155 276H680.052V275ZM678.852 263.96L679.846 263.852L679.552 261.151L678.025 263.398L678.852 263.96ZM668.652 273.2L669.12 274.084L668.652 273.2ZM653.052 275.44C645.288 275.44 638.553 273.677 632.811 270.186L631.772 271.894C637.87 275.603 644.975 277.44 653.052 277.44V275.44ZM632.811 270.186C627.055 266.685 622.581 261.826 619.382 255.584L617.602 256.496C620.963 263.054 625.688 268.195 631.772 271.894L632.811 270.186ZM619.384 255.588C616.187 249.271 614.572 241.911 614.572 233.48H612.572C612.572 242.169 614.237 249.849 617.6 256.492L619.384 255.588ZM614.572 233.48C614.572 224.971 616.226 217.532 619.502 211.136L617.722 210.224C614.278 216.948 612.572 224.709 612.572 233.48H614.572ZM619.5 211.14C622.856 204.661 627.567 199.643 633.64 196.061L632.624 194.339C626.217 198.117 621.247 203.419 617.724 210.22L619.5 211.14ZM633.643 196.059C639.783 192.406 647.08 190.56 655.572 190.56V188.56C646.784 188.56 639.12 190.474 632.621 194.341L633.643 196.059ZM655.572 190.56C665.249 190.56 673.19 192.879 679.463 197.448L680.641 195.832C673.954 190.961 665.575 188.56 655.572 188.56V190.56ZM679.463 197.448C685.735 202.017 689.808 208.323 691.677 216.425L693.626 215.975C691.656 207.437 687.329 200.703 680.641 195.832L679.463 197.448ZM692.652 215.2H675.492V217.2H692.652V215.2ZM676.443 215.89C675.094 211.758 672.633 208.528 669.073 206.239L667.991 207.921C671.151 209.952 673.33 212.802 674.541 216.51L676.443 215.89ZM669.087 206.248C665.519 203.869 660.989 202.72 655.572 202.72V204.72C660.714 204.72 664.825 205.811 667.977 207.912L669.087 206.248ZM655.572 202.72C646.941 202.72 640.157 205.485 635.37 211.112L636.894 212.408C641.226 207.315 647.403 204.72 655.572 204.72V202.72ZM635.375 211.106C630.613 216.621 628.292 224.16 628.292 233.6H630.292C630.292 224.48 632.531 217.459 636.889 212.414L635.375 211.106ZM628.292 233.6C628.292 243.034 630.57 250.499 635.259 255.859L636.764 254.541C632.494 249.661 630.292 242.726 630.292 233.6H628.292ZM635.27 255.871C640.048 261.151 646.494 263.76 654.492 263.76V261.76C646.97 261.76 641.096 259.329 636.753 254.529L635.27 255.871ZM654.492 263.76C662.266 263.76 668.291 261.67 672.38 257.325L670.924 255.955C667.333 259.77 661.918 261.76 654.492 261.76V263.76ZM672.38 257.326C676.472 252.983 678.904 247.331 679.725 240.438L677.739 240.202C676.959 246.749 674.672 251.977 670.924 255.954L672.38 257.326ZM678.732 239.32H657.492V241.32H678.732V239.32ZM658.492 240.32V228.8H656.492V240.32H658.492ZM657.492 229.8H694.212V227.8H657.492V229.8ZM693.212 228.8V275H695.212V228.8H693.212ZM694.212 274H680.052V276H694.212V274ZM681.046 274.892L679.846 263.852L677.858 264.068L679.058 275.108L681.046 274.892ZM678.025 263.398C675.392 267.27 672.113 270.236 668.184 272.316L669.12 274.084C673.351 271.844 676.872 268.65 679.679 264.522L678.025 263.398ZM668.184 272.316C664.291 274.377 659.266 275.44 653.052 275.44V277.44C659.478 277.44 664.852 276.343 669.12 274.084L668.184 272.316ZM709.144 275H708.144V276H709.144V275ZM709.144 191V190H708.144V191H709.144ZM763.984 191H764.984V190H763.984V191ZM763.984 203.36V204.36H764.984V203.36H763.984ZM724.504 203.36V202.36H723.504V203.36H724.504ZM724.504 226.4H723.504V227.4H724.504V226.4ZM760.384 226.4H761.384V225.4H760.384V226.4ZM760.384 238.4V239.4H761.384V238.4H760.384ZM724.504 238.4V237.4H723.504V238.4H724.504ZM724.504 262.64H723.504V263.64H724.504V262.64ZM763.984 262.64H764.984V261.64H763.984V262.64ZM763.984 275V276H764.984V275H763.984ZM710.144 275V191H708.144V275H710.144ZM709.144 192H763.984V190H709.144V192ZM762.984 191V203.36H764.984V191H762.984ZM763.984 202.36H724.504V204.36H763.984V202.36ZM723.504 203.36V226.4H725.504V203.36H723.504ZM724.504 227.4H760.384V225.4H724.504V227.4ZM759.384 226.4V238.4H761.384V226.4H759.384ZM760.384 237.4H724.504V239.4H760.384V237.4ZM723.504 238.4V262.64H725.504V238.4H723.504ZM724.504 263.64H763.984V261.64H724.504V263.64ZM762.984 262.64V275H764.984V262.64H762.984ZM763.984 274H709.144V276H763.984V274ZM798.079 275H797.079V276H798.079V275ZM798.079 203.36H799.079V202.36H798.079V203.36ZM773.599 203.36H772.599V204.36H773.599V203.36ZM773.599 191V190H772.599V191H773.599ZM838.039 191H839.039V190H838.039V191ZM838.039 203.36V204.36H839.039V203.36H838.039ZM813.439 203.36V202.36H812.439V203.36H813.439ZM813.439 275V276H814.439V275H813.439ZM799.079 275V203.36H797.079V275H799.079ZM798.079 202.36H773.599V204.36H798.079V202.36ZM774.599 203.36V191H772.599V203.36H774.599ZM773.599 192H838.039V190H773.599V192ZM837.039 191V203.36H839.039V191H837.039ZM838.039 202.36H813.439V204.36H838.039V202.36ZM812.439 203.36V275H814.439V203.36H812.439ZM813.439 274H798.079V276H813.439V274ZM897.572 275H896.572V276H897.572V275ZM897.572 203.36H898.572V202.36H897.572V203.36ZM873.092 203.36H872.092V204.36H873.092V203.36ZM873.092 191V190H872.092V191H873.092ZM937.532 191H938.532V190H937.532V191ZM937.532 203.36V204.36H938.532V203.36H937.532ZM912.932 203.36V202.36H911.932V203.36H912.932ZM912.932 275V276H913.932V275H912.932ZM898.572 275V203.36H896.572V275H898.572ZM897.572 202.36H873.092V204.36H897.572V202.36ZM874.092 203.36V191H872.092V203.36H874.092ZM873.092 192H937.532V190H873.092V192ZM936.532 191V203.36H938.532V191H936.532ZM937.532 202.36H912.932V204.36H937.532V202.36ZM911.932 203.36V275H913.932V203.36H911.932ZM912.932 274H897.572V276H912.932V274ZM963.143 270.92L962.635 271.781L962.64 271.784L963.143 270.92ZM948.383 255.68L947.502 256.153L947.505 256.159L947.509 256.166L948.383 255.68ZM948.383 210.44L947.506 209.959L947.504 209.963L948.383 210.44ZM963.143 195.08L962.64 194.216L962.635 194.219L963.143 195.08ZM1007.18 195.08L1007.69 194.216L1007.18 195.08ZM1021.94 210.44L1021.06 210.913L1021.06 210.917L1021.94 210.44ZM1021.94 255.68L1022.82 256.157L1022.82 256.153L1021.94 255.68ZM1007.18 270.92L1007.69 271.784L1007.18 270.92ZM1004.3 254.72L1003.56 254.047L1003.56 254.054L1004.3 254.72ZM1004.3 211.28L1003.56 211.946L1003.56 211.953L1004.3 211.28ZM966.023 211.28L966.763 211.953L966.023 211.28ZM966.023 254.72L966.763 254.047L966.023 254.72ZM985.223 275.44C976.973 275.44 969.792 273.634 963.646 270.056L962.64 271.784C969.134 275.566 976.673 277.44 985.223 277.44V275.44ZM963.651 270.059C957.568 266.471 952.773 261.523 949.257 255.194L947.509 256.166C951.193 262.797 956.238 268.009 962.635 271.781L963.651 270.059ZM949.264 255.207C945.833 248.813 944.103 241.42 944.103 233H942.103C942.103 241.7 943.893 249.427 947.502 256.153L949.264 255.207ZM944.103 233C944.103 224.58 945.833 217.229 949.262 210.917L947.504 209.963C943.893 216.611 942.103 224.3 942.103 233H944.103ZM949.26 210.921C952.776 204.513 957.571 199.527 963.651 195.941L962.635 194.219C956.235 197.993 951.19 203.247 947.506 209.959L949.26 210.921ZM963.646 195.944C969.792 192.366 976.973 190.56 985.223 190.56V188.56C976.673 188.56 969.134 190.434 962.64 194.216L963.646 195.944ZM985.223 190.56C993.391 190.56 1000.53 192.365 1006.68 195.944L1007.69 194.216C1001.19 190.435 993.695 188.56 985.223 188.56V190.56ZM1006.68 195.944C1012.84 199.529 1017.63 204.513 1021.06 210.913L1022.82 209.967C1019.22 203.247 1014.17 197.991 1007.69 194.216L1006.68 195.944ZM1021.06 210.917C1024.49 217.229 1026.22 224.58 1026.22 233H1028.22C1028.22 224.3 1026.43 216.611 1022.82 209.963L1021.06 210.917ZM1026.22 233C1026.22 241.42 1024.49 248.813 1021.06 255.207L1022.82 256.153C1026.43 249.427 1028.22 241.7 1028.22 233H1026.22ZM1021.06 255.203C1017.63 261.523 1012.84 266.469 1006.68 270.056L1007.69 271.784C1014.17 268.011 1019.22 262.797 1022.82 256.157L1021.06 255.203ZM1006.68 270.056C1000.53 273.635 993.391 275.44 985.223 275.44V277.44C993.695 277.44 1001.19 275.565 1007.69 271.784L1006.68 270.056ZM985.223 263.64C993.467 263.64 1000.11 260.907 1005.05 255.386L1003.56 254.054C999.053 259.093 992.979 261.64 985.223 261.64V263.64ZM1005.04 255.393C1010.05 249.88 1012.5 242.375 1012.5 233H1010.5C1010.5 242.025 1008.15 249 1003.56 254.047L1005.04 255.393ZM1012.5 233C1012.5 223.625 1010.05 216.12 1005.04 210.607L1003.56 211.953C1008.15 217 1010.5 223.975 1010.5 233H1012.5ZM1005.05 210.614C1000.11 205.093 993.467 202.36 985.223 202.36V204.36C992.979 204.36 999.053 206.907 1003.56 211.946L1005.05 210.614ZM985.223 202.36C976.979 202.36 970.297 205.092 965.283 210.607L966.763 211.953C971.349 206.908 977.467 204.36 985.223 204.36V202.36ZM965.283 210.607C960.272 216.12 957.823 223.625 957.823 233H959.823C959.823 223.975 962.174 217 966.763 211.953L965.283 210.607ZM957.823 233C957.823 242.375 960.272 249.88 965.283 255.393L966.763 254.047C962.174 249 959.823 242.025 959.823 233H957.823ZM965.283 255.393C970.297 260.908 976.979 263.64 985.223 263.64V261.64C977.467 261.64 971.349 259.092 966.763 254.047L965.283 255.393ZM1086.42 275L1085.45 275.256L1085.65 276H1086.42V275ZM1064.22 191V190H1062.92L1063.25 191.256L1064.22 191ZM1080.66 191L1081.63 190.779L1081.46 190H1080.66V191ZM1095.78 257.84L1094.8 258.061L1096.75 258.097L1095.78 257.84ZM1113.54 191V190H1112.77L1112.57 190.743L1113.54 191ZM1130.46 191L1131.43 190.75L1131.23 190H1130.46V191ZM1147.74 257.84L1146.77 258.09L1148.71 258.061L1147.74 257.84ZM1162.86 191V190H1162.06L1161.88 190.779L1162.86 191ZM1179.42 191L1180.38 191.262L1180.73 190H1179.42V191ZM1156.62 275V276H1157.38L1157.58 275.262L1156.62 275ZM1138.38 275L1137.41 275.259L1137.61 276H1138.38V275ZM1121.7 212.72L1122.66 212.461L1121.71 208.906L1120.73 212.454L1121.7 212.72ZM1104.54 275V276H1105.3L1105.5 275.266L1104.54 275ZM1087.39 274.744L1065.19 190.744L1063.25 191.256L1085.45 275.256L1087.39 274.744ZM1064.22 192H1080.66V190H1064.22V192ZM1079.68 191.221L1094.8 258.061L1096.75 257.619L1081.63 190.779L1079.68 191.221ZM1096.75 258.097L1114.51 191.257L1112.57 190.743L1094.81 257.583L1096.75 258.097ZM1113.54 192H1130.46V190H1113.54V192ZM1129.49 191.25L1146.77 258.09L1148.71 257.59L1131.43 190.75L1129.49 191.25ZM1148.71 258.061L1163.83 191.221L1161.88 190.779L1146.76 257.619L1148.71 258.061ZM1162.86 192H1179.42V190H1162.86V192ZM1178.45 190.738L1155.65 274.738L1157.58 275.262L1180.38 191.262L1178.45 190.738ZM1156.62 274H1138.38V276H1156.62V274ZM1139.34 274.741L1122.66 212.461L1120.73 212.979L1137.41 275.259L1139.34 274.741ZM1120.73 212.454L1103.57 274.734L1105.5 275.266L1122.66 212.986L1120.73 212.454ZM1104.54 274H1086.42V276H1104.54V274ZM1204.2 270.92L1203.69 271.781L1203.69 271.784L1204.2 270.92ZM1189.44 255.68L1188.56 256.153L1188.56 256.159L1188.56 256.166L1189.44 255.68ZM1189.44 210.44L1188.56 209.959L1188.56 209.963L1189.44 210.44ZM1204.2 195.08L1203.69 194.216L1203.69 194.219L1204.2 195.08ZM1248.24 195.08L1248.74 194.216L1248.24 195.08ZM1263 210.44L1262.12 210.913L1262.12 210.917L1263 210.44ZM1263 255.68L1263.88 256.157L1263.88 256.153L1263 255.68ZM1248.24 270.92L1248.74 271.784L1248.24 270.92ZM1245.36 254.72L1244.62 254.047L1244.61 254.054L1245.36 254.72ZM1245.36 211.28L1244.61 211.946L1244.62 211.953L1245.36 211.28ZM1207.08 211.28L1207.82 211.953L1207.08 211.28ZM1207.08 254.72L1207.82 254.047L1207.08 254.72ZM1226.28 275.44C1218.03 275.44 1210.85 273.634 1204.7 270.056L1203.69 271.784C1210.19 275.566 1217.73 277.44 1226.28 277.44V275.44ZM1204.71 270.059C1198.62 266.471 1193.83 261.523 1190.31 255.194L1188.56 256.166C1192.25 262.797 1197.29 268.009 1203.69 271.781L1204.71 270.059ZM1190.32 255.207C1186.89 248.813 1185.16 241.42 1185.16 233H1183.16C1183.16 241.7 1184.95 249.427 1188.56 256.153L1190.32 255.207ZM1185.16 233C1185.16 224.58 1186.89 217.229 1190.32 210.917L1188.56 209.963C1184.95 216.611 1183.16 224.3 1183.16 233H1185.16ZM1190.31 210.921C1193.83 204.513 1198.63 199.527 1204.71 195.941L1203.69 194.219C1197.29 197.993 1192.24 203.247 1188.56 209.959L1190.31 210.921ZM1204.7 195.944C1210.85 192.366 1218.03 190.56 1226.28 190.56V188.56C1217.73 188.56 1210.19 190.434 1203.69 194.216L1204.7 195.944ZM1226.28 190.56C1234.45 190.56 1241.59 192.365 1247.73 195.944L1248.74 194.216C1242.25 190.435 1234.75 188.56 1226.28 188.56V190.56ZM1247.73 195.944C1253.89 199.529 1258.68 204.513 1262.12 210.913L1263.88 209.967C1260.27 203.247 1255.22 197.991 1248.74 194.216L1247.73 195.944ZM1262.12 210.917C1265.55 217.229 1267.28 224.58 1267.28 233H1269.28C1269.28 224.3 1267.49 216.611 1263.88 209.963L1262.12 210.917ZM1267.28 233C1267.28 241.42 1265.55 248.813 1262.12 255.207L1263.88 256.153C1267.49 249.427 1269.28 241.7 1269.28 233H1267.28ZM1262.12 255.203C1258.69 261.523 1253.9 266.469 1247.73 270.056L1248.74 271.784C1255.22 268.011 1260.27 262.797 1263.88 256.157L1262.12 255.203ZM1247.73 270.056C1241.59 273.635 1234.45 275.44 1226.28 275.44V277.44C1234.75 277.44 1242.25 275.565 1248.74 271.784L1247.73 270.056ZM1226.28 263.64C1234.52 263.64 1241.17 260.907 1246.1 255.386L1244.61 254.054C1240.11 259.093 1234.03 261.64 1226.28 261.64V263.64ZM1246.1 255.393C1251.11 249.88 1253.56 242.375 1253.56 233H1251.56C1251.56 242.025 1249.21 249 1244.62 254.047L1246.1 255.393ZM1253.56 233C1253.56 223.625 1251.11 216.12 1246.1 210.607L1244.62 211.953C1249.21 217 1251.56 223.975 1251.56 233H1253.56ZM1246.1 210.614C1241.17 205.093 1234.52 202.36 1226.28 202.36V204.36C1234.03 204.36 1240.11 206.907 1244.61 211.946L1246.1 210.614ZM1226.28 202.36C1218.03 202.36 1211.35 205.092 1206.34 210.607L1207.82 211.953C1212.4 206.908 1218.52 204.36 1226.28 204.36V202.36ZM1206.34 210.607C1201.33 216.12 1198.88 223.625 1198.88 233H1200.88C1200.88 223.975 1203.23 217 1207.82 211.953L1206.34 210.607ZM1198.88 233C1198.88 242.375 1201.33 249.88 1206.34 255.393L1207.82 254.047C1203.23 249 1200.88 242.025 1200.88 233H1198.88ZM1206.34 255.393C1211.35 260.908 1218.03 263.64 1226.28 263.64V261.64C1218.52 261.64 1212.4 259.092 1207.82 254.047L1206.34 255.393ZM1281.84 275H1280.84V276H1281.84V275ZM1281.84 191V190H1280.84V191H1281.84ZM1329.24 194.48L1328.77 195.361L1328.78 195.366L1328.79 195.371L1329.24 194.48ZM1339.08 203.72L1338.2 204.203L1338.21 204.21L1339.08 203.72ZM1338.24 230.6L1337.4 230.06L1337.39 230.071L1338.24 230.6ZM1325.76 239.84L1325.44 238.893L1324.36 239.259L1324.86 240.284L1325.76 239.84ZM1343.16 275V276H1344.77L1344.06 274.556L1343.16 275ZM1325.52 275L1324.61 275.426L1324.89 276H1325.52V275ZM1309.92 241.88L1310.82 241.454L1310.55 240.88H1309.92V241.88ZM1297.2 241.88V240.88H1296.2V241.88H1297.2ZM1297.2 275V276H1298.2V275H1297.2ZM1297.2 230.6H1296.2V231.6H1297.2V230.6ZM1323 226.88L1322.28 226.185L1323 226.88ZM1323 207.44L1322.28 208.135L1322.29 208.141L1322.29 208.147L1323 207.44ZM1297.2 203.84V202.84H1296.2V203.84H1297.2ZM1282.84 275V191H1280.84V275H1282.84ZM1281.84 192H1312.68V190H1281.84V192ZM1312.68 192C1319.29 192 1324.64 193.143 1328.77 195.361L1329.71 193.599C1325.2 191.177 1319.51 190 1312.68 190V192ZM1328.79 195.371C1333.03 197.53 1336.15 200.476 1338.2 204.203L1339.96 203.237C1337.69 199.124 1334.25 195.91 1329.69 193.589L1328.79 195.371ZM1338.21 204.21C1340.28 207.89 1341.32 211.999 1341.32 216.56H1343.32C1343.32 211.681 1342.2 207.23 1339.95 203.23L1338.21 204.21ZM1341.32 216.56C1341.32 221.492 1340.01 225.984 1337.4 230.06L1339.08 231.14C1341.91 226.736 1343.32 221.868 1343.32 216.56H1341.32ZM1337.39 230.071C1334.9 234.077 1330.95 237.031 1325.44 238.893L1326.08 240.787C1331.93 238.809 1336.3 235.603 1339.09 231.129L1337.39 230.071ZM1324.86 240.284L1342.26 275.444L1344.06 274.556L1326.66 239.396L1324.86 240.284ZM1343.16 274H1325.52V276H1343.16V274ZM1326.42 274.574L1310.82 241.454L1309.02 242.306L1324.61 275.426L1326.42 274.574ZM1309.92 240.88H1297.2V242.88H1309.92V240.88ZM1296.2 241.88V275H1298.2V241.88H1296.2ZM1297.2 274H1281.84V276H1297.2V274ZM1297.2 231.6H1311.72V229.6H1297.2V231.6ZM1311.72 231.6C1316.98 231.6 1321.06 230.327 1323.72 227.575L1322.28 226.185C1320.14 228.393 1316.7 229.6 1311.72 229.6V231.6ZM1323.72 227.575C1326.33 224.875 1327.6 221.329 1327.6 217.04H1325.6C1325.6 220.911 1324.47 223.925 1322.28 226.185L1323.72 227.575ZM1327.6 217.04C1327.6 212.826 1326.33 209.354 1323.71 206.733L1322.29 208.147C1324.47 210.326 1325.6 213.254 1325.6 217.04H1327.6ZM1323.72 206.745C1321.13 204.062 1317 202.84 1311.6 202.84V204.84C1316.76 204.84 1320.23 206.018 1322.28 208.135L1323.72 206.745ZM1311.6 202.84H1297.2V204.84H1311.6V202.84ZM1296.2 203.84V230.6H1298.2V203.84H1296.2ZM1356.61 275H1355.61V276H1356.61V275ZM1356.61 191V190H1355.61V191H1356.61ZM1371.97 191H1372.97V190H1371.97V191ZM1371.97 224.96H1370.97V227.534L1372.7 225.635L1371.97 224.96ZM1403.05 191V190H1402.6L1402.31 190.325L1403.05 191ZM1422.01 191L1422.74 191.68L1424.3 190H1422.01V191ZM1391.05 224.36L1390.31 223.68L1389.79 224.242L1390.2 224.892L1391.05 224.36ZM1422.85 275V276H1424.65L1423.69 274.468L1422.85 275ZM1404.01 275L1403.15 275.525L1403.45 276H1404.01V275ZM1380.01 236.12L1380.86 235.595L1380.16 234.47L1379.27 235.444L1380.01 236.12ZM1371.97 244.88L1371.23 244.204L1370.97 244.491V244.88H1371.97ZM1371.97 275V276H1372.97V275H1371.97ZM1357.61 275V191H1355.61V275H1357.61ZM1356.61 192H1371.97V190H1356.61V192ZM1370.97 191V224.96H1372.97V191H1370.97ZM1372.7 225.635L1403.78 191.675L1402.31 190.325L1371.23 224.285L1372.7 225.635ZM1403.05 192H1422.01V190H1403.05V192ZM1421.27 190.32L1390.31 223.68L1391.78 225.04L1422.74 191.68L1421.27 190.32ZM1390.2 224.892L1422 275.532L1423.69 274.468L1391.89 223.828L1390.2 224.892ZM1422.85 274H1404.01V276H1422.85V274ZM1404.86 274.475L1380.86 235.595L1379.15 236.645L1403.15 275.525L1404.86 274.475ZM1379.27 235.444L1371.23 244.204L1372.7 245.556L1380.74 236.796L1379.27 235.444ZM1370.97 244.88V275H1372.97V244.88H1370.97ZM1371.97 274H1356.61V276H1371.97V274ZM1432.64 273.2L1431.94 273.907L1431.94 273.915L1431.95 273.923L1432.64 273.2ZM1432.64 260.36L1431.95 259.637L1431.94 259.645L1431.94 259.653L1432.64 260.36ZM1446.44 260.36L1445.74 261.067L1445.74 261.075L1445.75 261.083L1446.44 260.36ZM1446.44 273.2L1445.75 272.477L1445.74 272.485L1445.74 272.493L1446.44 273.2ZM1439.6 274.84C1437.03 274.84 1434.97 274.041 1433.33 272.477L1431.95 273.923C1434 275.879 1436.57 276.84 1439.6 276.84V274.84ZM1433.35 272.493C1431.78 270.92 1431 269.054 1431 266.84H1429C1429 269.586 1429.99 271.96 1431.94 273.907L1433.35 272.493ZM1431 266.84C1431 264.537 1431.78 262.634 1433.35 261.067L1431.94 259.653C1429.98 261.606 1429 264.023 1429 266.84H1431ZM1433.33 261.083C1434.97 259.519 1437.03 258.72 1439.6 258.72V256.72C1436.57 256.72 1434 257.681 1431.95 259.637L1433.33 261.083ZM1439.6 258.72C1442.17 258.72 1444.19 259.519 1445.74 261.067L1447.15 259.653C1445.18 257.681 1442.63 256.72 1439.6 256.72V258.72ZM1445.75 261.083C1447.39 262.653 1448.2 264.551 1448.2 266.84H1450.2C1450.2 264.009 1449.17 261.587 1447.13 259.637L1445.75 261.083ZM1448.2 266.84C1448.2 269.039 1447.4 270.9 1445.75 272.477L1447.13 273.923C1449.17 271.98 1450.2 269.601 1450.2 266.84H1448.2ZM1445.74 272.493C1444.19 274.041 1442.17 274.84 1439.6 274.84V276.84C1442.63 276.84 1445.18 275.879 1447.15 273.907L1445.74 272.493Z" fill="white"/>
<path fill-rule="evenodd" clip-rule="evenodd" d="M1641 156L81 156V154L1641 154V156Z" fill="#C6FF00"/>
</svg>
